Patient4_TMGait_0pt6_02_left_31_EMG.mot
version=1
nRows=27
nColumns=33
inDegrees=no
endheader
time	1LAddLong	2LGlutMax	3LGlutMed	4LIliopsoas	5LSemiMemb	6LBicFemLong	7LRecFem	8LVastMed	9LVastLat	10LGasMed	11LTibAnt	12lTibPost	13LPeroneusLong	14LSol	15LExtDigLong	16LFlexDigLong	17RAddLong	18RGlutMax	19RGlutMed	20RIliopsoas	21RSemiMemb	22RBicFemLong	23RRecFem	24RVastMed	25RVastLat	26RGasMed	27RTibAnt	28RTibPost	29RPeroneusLong	30RSol	31RExtDigLong	32RFlexDigLong
38.32	-0.00473	0.6311	-0.016632	-0.006409	-0.045929	-0.0177	-0.68146	0.00351	-0.1062	-0.074921	0.17258	0.13733	0.071564	0.20828	0.036469	-0.46677	-0.027008	-0.32577	-0.031586	-0.11505	0.10941	0.014496	0.43778	-0.13947	0.046844	0.001831	0.21622	-0.00946	-0.069122	0.056152	-0.0177	-0.000458
38.321	0.008392	0.4808	-0.14236	0.00473	0.025024	-0.10346	-0.6485	0.007782	-0.081482	-0.063782	0.34134	0.15793	0.085602	0.35095	0.17258	0.16846	-0.052032	-0.40192	0.10346	-0.11063	0.11078	-0.058289	0.42389	-0.13046	0.057678	0.009766	-0.086365	-0.004578	-0.000153	-0.020752	-0.019531	-0.001831
38.322	0.007477	0.30685	-0.18845	0.00946	0.04425	-0.15533	-0.62836	0.010986	-0.01358	-0.036316	0.34744	0.15808	0.007477	0.50476	0.17303	-0.030212	-0.075684	-0.54718	0.054932	-0.001221	0.097961	-0.026855	0.37262	-0.088348	0.063934	0.00885	-0.44006	0.000763	0.09964	-0.074005	-0.014038	-0.000916
38.323	0.016479	0.13931	-0.2446	0.023804	0.02182	-0.12528	-0.63553	0.005035	0.065613	-0.017395	0.16815	0.17975	-0.11749	0.45059	-0.007629	-0.062103	-0.054169	-0.75562	-0.32196	0.1355	0.079651	0.097809	0.38376	-0.009003	0.03891	0.007629	-0.19318	-0.009766	0.065308	-0.021515	-0.015717	-0.003204
38.324	0.024109	0.098572	-0.12634	-0.010223	0.023804	-0.028381	-0.63873	0	0.10941	-0.058289	-0.13809	0.18372	-0.042877	0.51407	-0.10269	0.7074	-0.027924	-0.96939	-0.13534	0.12466	0.043182	0.25207	0.38895	0.025787	0.03067	0.006409	0.031433	-0.005341	0.022583	-0.081177	-0.017395	-0.014038
38.325	0.018463	0.1648	-0.027008	0.005188	-0.11444	0.11444	-0.63553	0.000458	0.11307	-0.099335	-0.26459	0.16129	-0.078888	0.29297	-0.20645	-1.2398	-0.033875	-1.2091	-0.067139	0.062103	0.036469	0.30716	0.40695	0.060577	0.004425	0.005035	0.27985	-0.006104	-0.079803	-0.10742	-0.014343	-0.014038
38.326	0.034485	0.28305	-0.002441	-0.008698	-0.11398	0.25864	-0.63065	-0.039978	0.12116	-0.1207	-0.24353	0.14954	-0.031433	0.21744	-0.22537	-0.15701	0.011749	-1.4053	0.06897	-0.10315	0.063171	0.21591	0.41855	0.059509	0.014191	0.008698	-0.30441	-0.006561	0.024109	-0.16708	-0.020294	-0.011444
38.327	0.054321	0.36362	0.10346	-0.023499	-0.036469	0.23758	-0.6105	-0.010681	0.085907	-0.1152	-0.17075	0.13367	-0.004578	0.38864	-0.069427	1.1851	0.050049	-1.5779	0.041962	-0.2945	0.068512	0.093384	0.34454	0.074615	-0.014801	0.009003	-0.43655	-0.008545	-0.052948	-0.14938	-0.017395	-0.015106
38.328	0.060577	0.48325	0.00351	-0.007172	0.030823	0.20981	-0.49713	-0.011444	-0.10941	-0.081635	-0.071716	0.12726	-0.011292	0.36819	-0.013733	-0.25742	0.072174	-1.7239	-0.14221	-0.30548	0.06897	0.028839	0.32257	-0.022736	-0.032349	-0.000458	-0.70084	-0.007477	-0.10239	-0.024414	-0.018311	-0.028534
38.329	0.046539	0.57205	0.023041	0.012512	0.069122	0.21423	-0.39887	-0.009155	-0.31738	-0.072174	0.011292	0.12543	0.077515	0.038605	-0.014496	-0.099792	0.058136	-1.7395	-0.26077	-0.25223	0.046539	-0.019073	0.38834	-0.12329	-0.057983	-0.013733	-0.18112	-0.007935	-0.18021	0.11627	-0.016174	-0.028381
38.33	0.030212	0.61584	0.020294	0.006561	0.039825	0.26871	-0.4068	-0.00061	-0.22903	-0.10223	-0.046082	0.24002	0.13855	-0.19043	0.029602	0.25772	0.065155	-1.7395	-0.066986	-0.14389	0.009613	-0.044556	0.43152	-0.16617	-0.089874	-0.017395	0.093994	-0.008087	-0.19379	0.10391	-0.012665	-0.02121
38.331	0.018921	0.62454	0.002747	0.010681	0.010223	0.041962	-0.39032	0.001068	-0.11032	-0.061798	0.00824	0.081329	0.11704	-0.30945	-0.050659	0.20935	0.024872	-1.7122	-0.25635	0.012512	-0.019226	-0.061493	0.4277	-0.18936	-0.081787	-0.002289	-0.29144	-0.006714	-0.084686	0.098572	-0.013885	-0.024414
38.332	0.002594	0.75531	0.066223	0.008545	-0.02655	-0.12085	-0.3595	0.002899	-0.023804	0.005341	0.33478	-0.084534	-0.01297	-0.28885	-0.007629	-0.018921	0.037689	-1.6211	-0.31937	0.007477	-0.019073	-0.054626	0.41229	-0.20584	-0.088348	0.003815	-0.52948	-0.001068	0.083923	0.074005	-0.016479	-0.02243
38.333	-0.006866	0.62927	0.016785	0.011902	-0.081787	-0.013275	-0.36529	0.000916	0.044098	0.043488	0.27725	0.024567	-0.022583	-0.54459	0.68222	0.075378	0.043488	-1.4262	-0.09964	-0.045929	-0.00946	-0.04303	0.3772	-0.16296	-0.084076	0.002747	-0.28915	-0.006561	0.048065	0.14038	-0.01297	-0.017853
38.334	-0.002747	0.59753	0.07782	0.013275	-0.072327	0.080719	-0.33295	0.000458	0.059509	0.1207	0.23285	0.040894	-0.013123	-0.39063	0.43228	-0.25375	0.043335	-1.2209	0.12619	-0.056763	-0.020752	-0.040588	0.28183	-0.077667	-0.05661	0.000763	0.15808	0.000305	0.16876	0.025787	-0.012665	-0.012054
38.335	0.011902	0.54306	0.057068	0.015564	-0.004578	-0.10391	-0.30563	-0.002441	0.04715	0.18707	0.048981	-0.028992	-0.000153	-0.17395	0.62256	0.22873	0.015869	-1.0814	0.1236	0.011597	-0.02594	-0.032959	0.27954	0.032959	-0.048523	0.004272	0.3685	-0.002899	0.048981	-0.059814	-0.014038	-0.004578
38.336	0.012207	0.48263	0.094452	0.009613	0.032349	-0.039063	-0.24735	-0.001678	0.016174	0.1889	-0.36728	0.06073	0.097809	0.02655	0.056915	-0.20874	0.029449	-0.97183	0.079041	0.095215	-0.041199	-0.003052	0.29984	-0.035553	-0.045929	-0.00061	0.19394	-0.008392	-0.054169	-0.02182	-0.014038	-0.011139
38.337	0.017242	0.46127	0.17044	0.006409	0.022278	0.08255	-0.25742	0.00061	0.028076	0.13489	-0.60272	0.097351	0.22079	0.17212	0.47607	0.45898	0.050964	-0.8635	0.2803	0.13168	-0.049744	0.022583	0.28809	0.032806	-0.031433	-0.007324	0.26001	-0.003204	-0.14725	0.093079	-0.011597	-0.013733
38.338	0.03067	0.39505	0.20767	0.02243	0.042114	0.14023	-0.25497	-0.009766	0.076294	0.070343	-0.39185	0.12116	0.11993	-0.006104	-0.063324	-0.28091	0.019989	-0.89264	0.026245	0.19791	-0.050354	0.030823	0.14557	0.011749	-0.023651	-0.011902	0.31021	-0.004425	-0.15366	0.20065	-0.019226	-0.007935
38.339	0.025482	0.40222	0.28046	0.001526	0.023651	0.18631	-0.20309	-0.012512	0.076904	0.058289	-0.28244	0.034637	0.069885	0.16159	-0.62424	-0.67505	0.006409	-0.85541	-0.15259	0.13199	-0.046844	0.064697	0.02594	0.034332	-0.003967	-0.010834	0.3096	-0.003204	-0.1268	0.23178	-0.010986	-0.018311
38.34	0.010681	0.46417	0.22247	0.00885	-0.002747	0.065002	-0.19241	-0.015717	0.090332	0.11459	-0.16144	0.07019	0.1152	0.38162	-0.89859	-0.042725	0.035248	-0.69977	0.06073	0.15457	-0.02594	0.048523	0.11215	0.1326	-0.028687	-0.009003	0.28015	-0.001526	-0.10941	0.20691	-0.012817	-0.02182
38.341	0.015564	0.44357	0.15137	0.011139	-0.02121	0.003204	-0.21378	-0.02182	0.081787	0.14465	-0.045776	-0.16739	0.11734	0.54627	-0.53619	-0.030975	0.09201	-0.48263	0.32394	0.11337	0.006104	0.029602	0.15518	0.16419	-0.01709	-0.001678	0.32944	0	-0.12192	0.1178	-0.012207	-0.017853
38.342	0.004883	0.33417	0.005646	0.005951	0.01297	0.005341	-0.20691	-0.014496	0.047302	0.10223	0.1532	-0.21973	0.003357	0.58227	-0.52765	0.72693	0.10086	-0.36194	0.21408	0.080109	0.039673	-0.002441	0.14389	0.1294	0.00351	0.00473	0.32074	0.002594	-0.1059	-0.002136	-0.021362	-0.014343
38.343	0.007629	0.29175	-0.11154	-0.00824	0.028381	0.075531	-0.22919	-0.007172	0.013275	-0.012512	0.21255	-0.072937	-0.00412	0.38269	-0.21576	0.54092	0.13825	-0.12131	-0.24933	0.022583	0.062408	-0.020905	0.20889	0.086975	0.010986	0	0.066528	-0.000305	-0.082397	-0.085449	-0.010376	-0.025635
38.344	0.007935	0.29083	-0.10056	-0.004578	0.023804	0.20828	-0.25436	0.005341	-0.007782	-0.056763	0.067291	-0.076904	0.047607	0.29404	-0.24078	0.86166	0.11002	0.12741	-0.34225	-0.094757	0.061798	-0.003357	0.23209	0.11292	-0.010681	0.002747	-0.25543	0.001221	-0.044403	-0.13763	-0.011902	-0.020905
38.345	-0.011749	0.16037	-0.20813	-0.005951	-0.001526	0.03067	-0.25818	0.007935	-0.001831	-0.058289	-0.025787	-0.082245	0.03067	0.30182	-0.26245	-1.0652	0.065613	0.3772	-0.298	-0.035095	0.046387	0.050507	0.36926	0.13168	0.004425	0.005035	-0.2034	0.000305	0.048523	-0.11917	-0.014954	-0.023499
38.346	-0.010071	0.14572	-0.26703	0.006256	-0.029907	-0.12253	-0.30441	0.005798	0.02121	-0.052338	-0.082245	-0.10452	0.036163	0.52429	-0.20172	0.24612	0.069427	0.60059	-0.42191	0.075836	0.01709	0.11749	0.45258	0.17868	0.031586	-0.001526	-0.25971	0.000916	0.08316	-0.084534	-0.009003	-0.016022
